{
  "accessors": [
    {
      "bufferView": 1,
      "componentType": 5126,
      "count": 978,
      "max": [
        0.05319000035524368,
        0.024240000173449516,
        0.03198999911546707
      ],
      "min": [
        -0.05981000140309334,
        -0.024240000173449516,
        -0.00013000000035390258
      ],
      "type": "VEC3"
    },
    {
      "bufferView": 1,
      "byteOffset": 11736,
      "componentType": 5126,
      "count": 978,
      "max": [
        0.9968612194061279,
        0.9968612194061279,
        0.9707849621772766
      ],
      "min": [
        -0.9968612194061279,
        -0.9968612194061279,
        -0.9186946153640747
      ],
      "type": "VEC3"
    },
    {
      "bufferView": 0,
      "componentType": 5125,
      "count": 5844,
      "type": "SCALAR"
    },
    {
      "bufferView": 1,
      "byteOffset": 23472,
      "componentType": 5126,
      "count": 32,
      "max": [
        0.06492999941110611,
        0.04162000119686127,
        -0.0
      ],
      "min": [
        -0.06492999941110611,
        -0.04162000119686127,
        -0.4399999976158142
      ],
      "type": "VEC3"
    },
    {
      "bufferView": 1,
      "byteOffset": 23856,
      "componentType": 5126,
      "count": 32,
      "max": [
        0.7300170660018921,
        0.7278733849525452,
        0.6791031360626221
      ],
      "min": [
        -0.7300170660018921,
        -0.7278733849525452,
        -0.6791031360626221
      ],
      "type": "VEC3"
    },
    {
      "bufferView": 0,
      "byteOffset": 23376,
      "componentType": 5125,
      "count": 84,
      "type": "SCALAR"
    },
    {
      "bufferView": 1,
      "byteOffset": 24240,
      "componentType": 5126,
      "count": 128,
      "max": [
        0.07073000073432922,
        0.04625000059604645,
        0.004999999888241291
      ],
      "min": [
        -0.07073000073432922,
        -0.04625000059604645,
        -0.4449999928474426
      ],
      "type": "VEC3"
    },
    {
      "bufferView": 1,
      "byteOffset": 25776,
      "componentType": 5126,
      "count": 128,
      "max": [
        0.950575590133667,
        0.9850951433181763,
        0.7766868472099304
      ],
      "min": [
        -0.950575590133667,
        -0.9850951433181763,
        -0.7766727805137634
      ],
      "type": "VEC3"
    },
    {
      "bufferView": 0,
      "byteOffset": 23712,
      "componentType": 5125,
      "count": 672,
      "type": "SCALAR"
    }
  ],
  "asset": {
    "extras": {
      "author": "overevolve (https://sketchfab.com/overevolve)",
      "license": "CC-BY-4.0 (http://creativecommons.org/licenses/by/4.0/)",
      "source": "https://sketchfab.com/3d-models/battery-9-volt-de82224716a84659ac645bda0793193e",
      "title": "Battery - 9 Volt"
    },
    "generator": "Sketchfab-12.65.0",
    "version": "2.0"
  },
  "bufferViews": [
    {
      "buffer": 0,
      "byteLength": 26400,
      "name": "floatBufferViews",
      "target": 34963
    },
    {
      "buffer": 0,
      "byteLength": 27312,
      "byteOffset": 26400,
      "byteStride": 12,
      "name": "floatBufferViews",
      "target": 34962
    }
  ],
  "buffers": [
    {
      "byteLength": 53712,
      "uri": "scene.bin"
    }
  ],
  "extensionsRequired": [
    "KHR_materials_pbrSpecularGlossiness"
  ],
  "extensionsUsed": [
    "KHR_materials_pbrSpecularGlossiness"
  ],
  "materials": [
    {
      "doubleSided": true,
      "extensions": {
        "KHR_materials_pbrSpecularGlossiness": {
          "diffuseFactor": [
            0.27505354308408153,
            0.29501085479920286,
            0.3598394450211859,
            1.0
          ],
          "glossinessFactor": 0.4,
          "specularFactor": [
            0.5144230769,
            0.5144230769,
            0.5144230769
          ]
        }
      },
      "name": "Metal"
    },
    {
      "doubleSided": true,
      "extensions": {
        "KHR_materials_pbrSpecularGlossiness": {
          "diffuseFactor": [
            0.0396796428,
            0.0396796428,
            0.0396796428,
            1.0
          ],
          "glossinessFactor": 0.4,
          "specularFactor": [
            0.0,
            0.0,
            0.0
          ]
        }
      },
      "name": "Insulator"
    },
    {
      "doubleSided": true,
      "extensions": {
        "KHR_materials_pbrSpecularGlossiness": {
          "diffuseFactor": [
            0.6151775718,
            0.0448340774,
            0.0155654708,
            1.0
          ],
          "glossinessFactor": 0.4,
          "specularFactor": [
            0.0,
            0.0,
            0.0
          ]
        }
      },
      "name": "Label"
    }
  ],
  "meshes": [
    {
      "name": "Cylinder_0",
      "primitives": [
        {
          "attributes": {
            "NORMAL": 1,
            "POSITION": 0
          },
          "indices": 2,
          "material": 0,
          "mode": 4
        }
      ]
    },
    {
      "name": "Cylinder_1",
      "primitives": [
        {
          "attributes": {
            "NORMAL": 4,
            "POSITION": 3
          },
          "indices": 5,
          "material": 1,
          "mode": 4
        }
      ]
    },
    {
      "name": "Cylinder_2",
      "primitives": [
        {
          "attributes": {
            "NORMAL": 7,
            "POSITION": 6
          },
          "indices": 8,
          "material": 2,
          "mode": 4
        }
      ]
    }
  ],
  "nodes": [
    {
      "children": [
        1
      ],
      "matrix": [
        1.0,
        0.0,
        0.0,
        0.0,
        0.0,
        2.220446049250313e-16,
        -1.0,
        0.0,
        0.0,
        1.0,
        2.220446049250313e-16,
        0.0,
        0.0,
        0.0,
        0.0,
        1.0
      ],
      "name": "Sketchfab_model"
    },
    {
      "children": [
        2,
        4
      ],
      "name": "Root"
    },
    {
      "children": [
        3
      ],
      "matrix": [
        -0.29086000000000006,
        0.9551700000000001,
        -0.05519000000000001,
        0.0,
        -0.7711,
        -0.19988000000000003,
        0.6045200000000001,
        0.0,
        0.5663900000000001,
        0.21839000000000003,
        0.7946700000000001,
        0.0,
        4.076250000000001,
        1.00545,
        5.903860000000001,
        1.0
      ],
      "name": "Lamp"
    },
    {
      "name": "Lamp"
    },
    {
      "children": [
        5,
        6,
        7
      ],
      "matrix": [
        1.8378599999999998,
        0.0,
        0.0,
        0.0,
        0.0,
        1.8378599999999998,
        0.0,
        0.0,
        0.0,
        0.0,
        1.0,
        0.0,
        -0.0,
        0.0,
        0.22000000000000003,
        1.0
      ],
      "name": "Cylinder"
    },
    {
      "mesh": 0,
      "name": "Cylinder_0"
    },
    {
      "mesh": 1,
      "name": "Cylinder_1"
    },
    {
      "mesh": 2,
      "name": "Cylinder_2"
    }
  ],
  "scene": 0,
  "scenes": [
    {
      "name": "Sketchfab_Scene",
      "nodes": [
        0
      ]
    }
  ]
}
